#N canvas 46 61 450 300 10;
#X obj 198 82 comport 1 9600;
#X msg 129 45 close;
#X msg 288 30 1;
#X msg 319 30 2;
#X msg 350 30 3;
#X msg 57 46 devices;
#X floatatom 195 140 5 0 0 0 - - -;
#X msg 298 119 0;
#X text 344 97;
#X obj 316 91 bng 15 250 50 0 empty empty empty 17 7 0 10 -262144 -1
-1;
#X msg 209 36 open 2;
#X msg 381 30 4;
#X msg 412 30 5;
#X msg 370 59 6;
#X msg 402 59 7;
#X obj 14 55 key;
#X obj 19 84 sel 0;
#X floatatom 46 113 5 0 0 0 - - -;
#X floatatom 45 189 5 0 0 0 - - -;
#X obj 44 152 - 64;
#X connect 0 0 6 0;
#X connect 1 0 0 0;
#X connect 2 0 0 0;
#X connect 2 0 9 0;
#X connect 3 0 0 0;
#X connect 3 0 9 0;
#X connect 4 0 0 0;
#X connect 4 0 9 0;
#X connect 5 0 0 0;
#X connect 7 0 6 0;
#X connect 9 0 7 0;
#X connect 10 0 0 0;
#X connect 11 0 0 0;
#X connect 12 0 0 0;
#X connect 13 0 0 0;
#X connect 14 0 0 0;
#X connect 15 0 16 0;
#X connect 16 1 17 0;
#X connect 17 0 19 0;
#X connect 18 0 0 0;
#X connect 19 0 18 0;
